<svg width="100" height="100" viewBox="0 0 100 100" fill="none" xmlns="http://www.w3.org/2000/svg">
<path d="M88.5205 24.6735L63.6225 1.06122C62.7654 0.428571 61.9286 0 60.847 0H14.2552C11.9082 0 10.2144 1.91837 10.2144 4.04082V95.9592C10.2144 98.3061 12.1327 100 14.2552 100H85.745C88.0919 100 89.7858 98.3061 89.7858 95.9592V27.449C89.7858 26.3878 89.3776 25.5306 88.5205 24.6735ZM64.6838 12.9388L77.4593 25.102H64.6838V12.9388ZM81.9287 92.1225H18.0919V7.87755H56.6021V28.7347C56.6021 31.0816 58.5205 32.7755 60.6429 32.7755H81.9287V92.1225Z" fill="black"/>
<path d="M62.194 37.7756C60.4389 36.8572 58.296 37.5511 57.3777 39.2858L36.3164 79.7143C35.3981 81.4694 36.0307 83.7143 37.8266 84.5306C39.8675 85.4694 42.0103 84.2449 42.643 83.0204L63.7042 42.5919C64.6226 40.8368 63.9287 38.6735 62.194 37.7756Z" fill="black"/>
<path d="M47.1532 49.245C47.1532 42.3878 42.4185 36.8368 36.5613 36.8368C30.7042 36.8368 25.9695 42.3878 25.9695 49.245C25.9695 56.1021 30.7246 61.6327 36.5613 61.6327C42.3981 61.6327 47.1532 56.0817 47.1532 49.245ZM33.1123 49.245C33.1123 46.347 34.6634 43.9796 36.5613 43.9796C38.4593 43.9796 40.0103 46.3266 40.0103 49.245C40.0103 52.1633 38.4797 54.4899 36.5613 54.4899C34.643 54.4899 33.1123 52.1429 33.1123 49.245Z" fill="black"/>
<path d="M63.4388 60.6531C57.5816 60.6531 52.8469 66.2041 52.8469 73.0612C52.8469 79.9184 57.5816 85.4694 63.4388 85.4694C69.2959 85.4694 74.0306 79.9184 74.0306 73.0612C74.0306 66.2041 69.2959 60.6531 63.4388 60.6531ZM63.4388 78.3061C61.5408 78.3061 59.9898 75.9592 59.9898 73.0408C59.9898 70.1225 61.5408 67.7755 63.4388 67.7755C65.3367 67.7755 66.8877 70.1225 66.8877 73.0408C66.8877 75.9592 65.3571 78.3061 63.4388 78.3061Z" fill="black"/>
</svg>
