<svg width="100" height="100" viewBox="0 0 100 100" fill="currentColor" xmlns="http://www.w3.org/2000/svg">
<g clip-path="url(#clip0)">
<path d="M99.6815 48.6983C99.257 47.849 98.4077 47 97.3463 46.5752L68.4735 35.1111C70.8087 30.2282 71.8703 24.9207 71.658 20.0379C71.4456 13.8812 68.898 8.78605 64.8645 5.17683C54.6741 -3.73975 37.2655 -0.555256 25.8013 12.6072C21.5554 17.4901 18.3709 23.2222 17.0971 29.1666C17.0971 29.379 17.0971 29.8035 17.0971 30.0159L2.44842 37.0217C0.325358 38.0832 -0.523707 40.2062 0.325358 42.3293L12.6388 72.9004C13.0633 73.9619 13.9126 74.8111 14.974 75.2356L76.3286 99.6501C76.7532 99.8625 77.3901 99.8625 77.8148 99.8625C79.3009 99.8625 80.9993 98.8011 81.6362 96.8904L99.6817 51.883C100.106 50.8213 100.106 49.7599 99.6815 48.6983ZM31.9581 17.915C40.2378 8.36152 52.7634 5.38939 59.3447 11.1215C62.3169 13.8814 63.1661 17.7028 63.3785 20.2504C63.5909 24.0718 62.7416 28.1056 60.8309 32.1391L36.204 22.3731C35.1426 21.9486 33.8688 22.1607 32.8072 22.5855L27.0751 25.3454C28.3489 22.5855 30.0474 20.2502 31.9581 17.915ZM75.4794 90.309L19.6447 68.23L9.66667 42.9662L34.7181 30.8651L55.9481 39.3572C47.6684 48.9106 35.1428 51.6706 28.5614 45.9385C26.8631 44.4524 24.1032 44.6647 22.617 46.3631C21.1308 48.0614 21.3432 50.8213 23.0415 52.3075C26.8629 55.492 31.7457 57.1903 37.0533 57.1903C45.5453 57.1903 55.0988 52.732 62.1047 44.8769C62.7416 44.0276 63.3785 43.3907 64.0154 42.5417L90.3406 52.9444L75.4794 90.309Z" fill="currentColor"/>
</g>
<defs>
<clipPath id="clip0">
<rect width="100" height="100" fill="white"/>
</clipPath>
</defs>
</svg>
