<svg width="100" height="100" viewBox="0 0 100 100" fill="currentColor" xmlns="http://www.w3.org/2000/svg">
<path d="M98.1914 43.4043L73.7232 25.1955V4.25527C73.7234 1.91484 71.8085 0 69.4681 0C67.1277 0 65.2128 1.91484 65.2128 4.25527V18.8619L52.4468 9.36172C50.9576 8.29785 49.0425 8.29785 47.5533 9.36172L1.80854 43.4043C-0.106303 44.6809 -0.319194 47.2342 0.957564 49.149C2.23413 51.0639 4.78745 51.2768 6.70229 50L10.9576 46.8502V95.7447C10.9576 98.0852 12.8724 100 15.2128 100H40.532H59.8937H84.9999C87.3404 100 89.2552 98.0852 89.4681 95.7447V47.1512L93.2978 50C94.1488 50.6383 94.9999 50.851 95.8509 50.851C97.1275 50.851 98.404 50.4254 99.0423 49.1488C100.319 47.4469 100.106 44.6809 98.1914 43.4043ZM44.5744 91.7021V70.4256H55.6382V91.7021H44.5744ZM80.9574 91.7021H64.1488V66.1703C64.1488 63.8299 62.2339 61.915 59.8935 61.915H40.5318C38.1914 61.915 36.2765 63.8299 36.2765 66.1703V91.7021H19.2552V48.0852H80.9574V91.7021ZM20.7869 39.5744L50.1064 17.8723L66.5214 30.0824C66.7837 30.335 67.0779 30.5545 67.3974 30.734L79.2822 39.5744H20.7869Z" fill="currentColor"/>
</svg>
