<svg width="40" height="40" viewBox="0 0 40 40" fill="none" xmlns="http://www.w3.org/2000/svg">
<path d="M38.3184 6.58338C38.3184 6.28921 38.2404 6.00029 38.0926 5.74597C37.9447 5.49166 37.7322 5.28101 37.4766 5.13542C37.221 4.98983 36.9314 4.9145 36.6372 4.91707C36.343 4.91964 36.0548 5.00002 35.8017 5.15005C34.8258 5.7314 33.775 6.17663 32.6784 6.47338C31.1134 5.1305 29.1173 4.39573 27.0551 4.40338C24.793 4.40609 22.6204 5.28777 20.9962 6.86225C19.372 8.43673 18.4231 10.5808 18.3501 12.8417C13.8897 12.1306 9.8472 9.80259 6.99341 6.30171C6.82146 6.09333 6.60196 5.92931 6.3534 5.82344C6.10483 5.71758 5.83448 5.67297 5.56508 5.69338C5.29574 5.71567 5.03588 5.80319 4.80794 5.94838C4.58 6.09357 4.39082 6.29206 4.25675 6.52671C3.56928 7.72654 3.17448 9.07159 3.1044 10.4526C3.03432 11.8337 3.29094 13.2118 3.85341 14.475L3.85008 14.4767C3.59672 14.6324 3.38763 14.8506 3.24287 15.1103C3.09811 15.3701 3.02254 15.6627 3.02341 15.96C3.02074 16.2047 3.03578 16.4492 3.06841 16.6917C3.23862 18.7885 4.1678 20.7511 5.68175 22.2117C5.57901 22.4076 5.51637 22.6219 5.49748 22.8423C5.4786 23.0627 5.50384 23.2846 5.57175 23.495C6.23171 25.552 7.63551 27.2886 9.50841 28.365C7.60536 29.1008 5.55058 29.3572 3.52508 29.1117C3.15037 29.0651 2.77093 29.1471 2.44893 29.3443C2.12692 29.5416 1.88142 29.8423 1.75265 30.1972C1.62387 30.5522 1.61944 30.9404 1.74009 31.2982C1.86074 31.656 2.09932 31.9622 2.41675 32.1667C5.90043 34.4101 9.95654 35.6026 14.1001 35.6017C18.7988 35.6546 23.3833 34.1532 27.1405 31.331C30.8977 28.5089 33.6168 24.5242 34.8751 19.9967C35.4633 18.0247 35.7637 15.978 35.7667 13.92L35.7651 13.5867C36.6353 12.6481 37.3095 11.5451 37.7479 10.3425C38.1864 9.13992 38.3803 7.8619 38.3184 6.58338ZM32.8084 11.9367C32.5328 12.2621 32.3932 12.6811 32.4184 13.1067C32.4351 13.3817 32.4334 13.6584 32.4334 13.92C32.4299 15.6587 32.175 17.3877 31.6767 19.0534C30.6495 22.9061 28.3591 26.3026 25.1722 28.6989C21.9854 31.0953 18.0865 32.3528 14.1001 32.27C12.6686 32.2703 11.2421 32.1019 9.85008 31.7684C11.6256 31.1958 13.2857 30.3133 14.7534 29.1617C15.0241 28.9489 15.2222 28.6575 15.3205 28.3276C15.4189 27.9977 15.4126 27.6454 15.3027 27.3191C15.1927 26.9929 14.9844 26.7087 14.7064 26.5056C14.4284 26.3026 14.0943 26.1906 13.7501 26.185C12.3646 26.1634 11.0417 25.6047 10.0601 24.6267C10.309 24.58 10.5562 24.5217 10.8017 24.4517C11.1618 24.3494 11.4769 24.1288 11.6963 23.8255C11.9157 23.5223 12.0267 23.154 12.0113 22.78C11.9959 22.406 11.855 22.0481 11.6114 21.7639C11.3678 21.4797 11.0357 21.2858 10.6684 21.2134C9.86423 21.0545 9.10752 20.7123 8.45713 20.2134C7.80674 19.7145 7.28018 19.0723 6.91841 18.3367C7.21967 18.3779 7.52285 18.4035 7.82675 18.4134C8.18788 18.4193 8.54153 18.3101 8.8364 18.1015C9.13128 17.8929 9.35207 17.5959 9.46675 17.2534C9.57683 16.908 9.5713 16.5361 9.451 16.1942C9.33069 15.8522 9.10217 15.5588 8.80008 15.3584C8.06664 14.8702 7.46576 14.2076 7.05127 13.4301C6.63678 12.6526 6.42162 11.7845 6.42508 10.9034C6.42508 10.7934 6.42841 10.6817 6.43508 10.5734C10.1709 14.0578 15.0166 16.1117 20.1184 16.3734C20.376 16.3832 20.6325 16.3342 20.8684 16.2303C21.1043 16.1263 21.3135 15.9701 21.4801 15.7734C21.6451 15.5755 21.762 15.342 21.8216 15.0912C21.8812 14.8405 21.8818 14.5794 21.8234 14.3284C21.728 13.9304 21.6793 13.5226 21.6784 13.1134C21.6802 11.6879 22.2472 10.3214 23.2551 9.31345C24.2631 8.30551 25.6296 7.73848 27.0551 7.73671C27.7887 7.73455 28.5147 7.8845 29.1874 8.1771C29.8601 8.4697 30.4648 8.8986 30.9634 9.43671C31.1556 9.64358 31.3976 9.79782 31.6663 9.88476C31.935 9.97169 32.2214 9.98843 32.4984 9.93338C33.1831 9.80029 33.858 9.62099 34.5184 9.39671C34.0681 10.3181 33.4927 11.1728 32.8084 11.9367Z" fill="white"/>
</svg>
